<mxfile host="app.diagrams.net" modified="2023-05-03T17:12:02.614Z" agent="Mozilla/5.0 (Windows NT 10.0; Win64; x64) AppleWebKit/537.36 (KHTML, like Gecko) Chrome/112.0.0.0 Safari/537.36" etag="xpkR9pL9ni1dv2BLGsF5" version="21.2.1" type="device">
  <diagram name="Page-1" id="NVn75ex0E_PNewiBg08G">
    <mxGraphModel dx="1432" dy="1307" grid="0" gridSize="10" guides="1" tooltips="1" connect="1" arrows="1" fold="1" page="0" pageScale="1" pageWidth="850" pageHeight="1100" math="0" shadow="0">
      <root>
        <mxCell id="0" />
        <mxCell id="1" parent="0" />
        <mxCell id="14V4Hepog4feS3XsgJQQ-1" value="Follows" style="swimlane;fontStyle=0;childLayout=stackLayout;horizontal=1;startSize=30;horizontalStack=0;resizeParent=1;resizeParentMax=0;resizeLast=0;collapsible=1;marginBottom=0;whiteSpace=wrap;html=1;fontSize=16;" vertex="1" parent="1">
          <mxGeometry x="2" y="-136" width="267" height="90" as="geometry" />
        </mxCell>
        <mxCell id="14V4Hepog4feS3XsgJQQ-2" value="user_being_followed_id (PK/FK)" style="text;strokeColor=none;fillColor=none;align=left;verticalAlign=middle;spacingLeft=4;spacingRight=4;overflow=hidden;points=[[0,0.5],[1,0.5]];portConstraint=eastwest;rotatable=0;whiteSpace=wrap;html=1;fontSize=16;fontStyle=1" vertex="1" parent="14V4Hepog4feS3XsgJQQ-1">
          <mxGeometry y="30" width="267" height="30" as="geometry" />
        </mxCell>
        <mxCell id="14V4Hepog4feS3XsgJQQ-3" value="user_following_id (PK/FK)" style="text;strokeColor=none;fillColor=none;align=left;verticalAlign=middle;spacingLeft=4;spacingRight=4;overflow=hidden;points=[[0,0.5],[1,0.5]];portConstraint=eastwest;rotatable=0;whiteSpace=wrap;html=1;fontSize=16;fontStyle=1" vertex="1" parent="14V4Hepog4feS3XsgJQQ-1">
          <mxGeometry y="60" width="267" height="30" as="geometry" />
        </mxCell>
        <mxCell id="14V4Hepog4feS3XsgJQQ-5" value="Users" style="swimlane;fontStyle=0;childLayout=stackLayout;horizontal=1;startSize=30;horizontalStack=0;resizeParent=1;resizeParentMax=0;resizeLast=0;collapsible=1;marginBottom=0;whiteSpace=wrap;html=1;fontSize=16;" vertex="1" parent="1">
          <mxGeometry x="365" width="236" height="246" as="geometry" />
        </mxCell>
        <mxCell id="14V4Hepog4feS3XsgJQQ-6" value="id (PK)" style="text;strokeColor=none;fillColor=none;align=left;verticalAlign=middle;spacingLeft=4;spacingRight=4;overflow=hidden;points=[[0,0.5],[1,0.5]];portConstraint=eastwest;rotatable=0;whiteSpace=wrap;html=1;fontSize=16;fontStyle=1" vertex="1" parent="14V4Hepog4feS3XsgJQQ-5">
          <mxGeometry y="30" width="236" height="30" as="geometry" />
        </mxCell>
        <mxCell id="14V4Hepog4feS3XsgJQQ-7" value="&lt;span style=&quot;font-weight: normal;&quot;&gt;email (unique)&lt;/span&gt;" style="text;strokeColor=none;fillColor=none;align=left;verticalAlign=middle;spacingLeft=4;spacingRight=4;overflow=hidden;points=[[0,0.5],[1,0.5]];portConstraint=eastwest;rotatable=0;whiteSpace=wrap;html=1;fontSize=16;fontStyle=1" vertex="1" parent="14V4Hepog4feS3XsgJQQ-5">
          <mxGeometry y="60" width="236" height="30" as="geometry" />
        </mxCell>
        <mxCell id="14V4Hepog4feS3XsgJQQ-21" value="username" style="text;strokeColor=none;fillColor=none;align=left;verticalAlign=top;spacingLeft=4;spacingRight=4;overflow=hidden;rotatable=0;points=[[0,0.5],[1,0.5]];portConstraint=eastwest;whiteSpace=wrap;html=1;fontSize=16;" vertex="1" parent="14V4Hepog4feS3XsgJQQ-5">
          <mxGeometry y="90" width="236" height="26" as="geometry" />
        </mxCell>
        <mxCell id="14V4Hepog4feS3XsgJQQ-22" value="image_url" style="text;strokeColor=none;fillColor=none;align=left;verticalAlign=top;spacingLeft=4;spacingRight=4;overflow=hidden;rotatable=0;points=[[0,0.5],[1,0.5]];portConstraint=eastwest;whiteSpace=wrap;html=1;fontSize=16;" vertex="1" parent="14V4Hepog4feS3XsgJQQ-5">
          <mxGeometry y="116" width="236" height="26" as="geometry" />
        </mxCell>
        <mxCell id="14V4Hepog4feS3XsgJQQ-23" value="header_image_url" style="text;strokeColor=none;fillColor=none;align=left;verticalAlign=top;spacingLeft=4;spacingRight=4;overflow=hidden;rotatable=0;points=[[0,0.5],[1,0.5]];portConstraint=eastwest;whiteSpace=wrap;html=1;fontSize=16;" vertex="1" parent="14V4Hepog4feS3XsgJQQ-5">
          <mxGeometry y="142" width="236" height="26" as="geometry" />
        </mxCell>
        <mxCell id="14V4Hepog4feS3XsgJQQ-24" value="bio" style="text;strokeColor=none;fillColor=none;align=left;verticalAlign=top;spacingLeft=4;spacingRight=4;overflow=hidden;rotatable=0;points=[[0,0.5],[1,0.5]];portConstraint=eastwest;whiteSpace=wrap;html=1;fontSize=16;" vertex="1" parent="14V4Hepog4feS3XsgJQQ-5">
          <mxGeometry y="168" width="236" height="26" as="geometry" />
        </mxCell>
        <mxCell id="14V4Hepog4feS3XsgJQQ-25" value="location" style="text;strokeColor=none;fillColor=none;align=left;verticalAlign=top;spacingLeft=4;spacingRight=4;overflow=hidden;rotatable=0;points=[[0,0.5],[1,0.5]];portConstraint=eastwest;whiteSpace=wrap;html=1;fontSize=16;" vertex="1" parent="14V4Hepog4feS3XsgJQQ-5">
          <mxGeometry y="194" width="236" height="26" as="geometry" />
        </mxCell>
        <mxCell id="14V4Hepog4feS3XsgJQQ-26" value="password" style="text;strokeColor=none;fillColor=none;align=left;verticalAlign=top;spacingLeft=4;spacingRight=4;overflow=hidden;rotatable=0;points=[[0,0.5],[1,0.5]];portConstraint=eastwest;whiteSpace=wrap;html=1;fontSize=16;" vertex="1" parent="14V4Hepog4feS3XsgJQQ-5">
          <mxGeometry y="220" width="236" height="26" as="geometry" />
        </mxCell>
        <mxCell id="14V4Hepog4feS3XsgJQQ-14" value="Messages" style="swimlane;fontStyle=0;childLayout=stackLayout;horizontal=1;startSize=30;horizontalStack=0;resizeParent=1;resizeParentMax=0;resizeLast=0;collapsible=1;marginBottom=0;whiteSpace=wrap;html=1;fontSize=16;" vertex="1" parent="1">
          <mxGeometry x="2" y="48" width="140" height="146" as="geometry" />
        </mxCell>
        <mxCell id="14V4Hepog4feS3XsgJQQ-15" value="id (PK)" style="text;strokeColor=none;fillColor=none;align=left;verticalAlign=middle;spacingLeft=4;spacingRight=4;overflow=hidden;points=[[0,0.5],[1,0.5]];portConstraint=eastwest;rotatable=0;whiteSpace=wrap;html=1;fontSize=16;fontStyle=1" vertex="1" parent="14V4Hepog4feS3XsgJQQ-14">
          <mxGeometry y="30" width="140" height="30" as="geometry" />
        </mxCell>
        <mxCell id="14V4Hepog4feS3XsgJQQ-16" value="text" style="text;strokeColor=none;fillColor=none;align=left;verticalAlign=middle;spacingLeft=4;spacingRight=4;overflow=hidden;points=[[0,0.5],[1,0.5]];portConstraint=eastwest;rotatable=0;whiteSpace=wrap;html=1;fontSize=16;" vertex="1" parent="14V4Hepog4feS3XsgJQQ-14">
          <mxGeometry y="60" width="140" height="30" as="geometry" />
        </mxCell>
        <mxCell id="14V4Hepog4feS3XsgJQQ-17" value="timestamp" style="text;strokeColor=none;fillColor=none;align=left;verticalAlign=middle;spacingLeft=4;spacingRight=4;overflow=hidden;points=[[0,0.5],[1,0.5]];portConstraint=eastwest;rotatable=0;whiteSpace=wrap;html=1;fontSize=16;" vertex="1" parent="14V4Hepog4feS3XsgJQQ-14">
          <mxGeometry y="90" width="140" height="30" as="geometry" />
        </mxCell>
        <mxCell id="14V4Hepog4feS3XsgJQQ-27" value="user_id" style="text;strokeColor=none;fillColor=none;align=left;verticalAlign=top;spacingLeft=4;spacingRight=4;overflow=hidden;rotatable=0;points=[[0,0.5],[1,0.5]];portConstraint=eastwest;whiteSpace=wrap;html=1;fontSize=16;" vertex="1" parent="14V4Hepog4feS3XsgJQQ-14">
          <mxGeometry y="120" width="140" height="26" as="geometry" />
        </mxCell>
        <mxCell id="14V4Hepog4feS3XsgJQQ-33" style="edgeStyle=none;curved=1;rounded=0;orthogonalLoop=1;jettySize=auto;html=1;entryX=0;entryY=0.5;entryDx=0;entryDy=0;fontSize=12;startSize=8;endSize=8;" edge="1" parent="1" source="14V4Hepog4feS3XsgJQQ-27" target="14V4Hepog4feS3XsgJQQ-6">
          <mxGeometry relative="1" as="geometry" />
        </mxCell>
        <mxCell id="14V4Hepog4feS3XsgJQQ-34" style="edgeStyle=none;curved=1;rounded=0;orthogonalLoop=1;jettySize=auto;html=1;entryX=0;entryY=0.5;entryDx=0;entryDy=0;fontSize=12;startSize=8;endSize=8;" edge="1" parent="1" source="14V4Hepog4feS3XsgJQQ-3" target="14V4Hepog4feS3XsgJQQ-6">
          <mxGeometry relative="1" as="geometry" />
        </mxCell>
        <mxCell id="14V4Hepog4feS3XsgJQQ-35" style="edgeStyle=none;curved=1;rounded=0;orthogonalLoop=1;jettySize=auto;html=1;entryX=0;entryY=0.5;entryDx=0;entryDy=0;fontSize=12;startSize=8;endSize=8;" edge="1" parent="1" source="14V4Hepog4feS3XsgJQQ-2" target="14V4Hepog4feS3XsgJQQ-6">
          <mxGeometry relative="1" as="geometry" />
        </mxCell>
      </root>
    </mxGraphModel>
  </diagram>
</mxfile>
